{
  "version": "0.6.0",
  "modules": [
    {
      "plugin": "Fundamental",
      "version": "0.6.0",
      "model": "ADSR",
      "pos": [
        16,
        0
      ],
      "params": [
        {
          "paramId": 0,
          "value": 0.574499726
        },
        {
          "paramId": 1,
          "value": 0.438500077
        },
        {
          "paramId": 2,
          "value": 0.801499844
        },
        {
          "paramId": 3,
          "value": 0.5
        }
      ]
    },
    {
      "plugin": "Core",
      "version": "0.6.0",
      "model": "AudioInterface",
      "pos": [
        30,
        0
      ],
      "params": [],
      "data": {
        "audio": {
          "driver": 7,
          "deviceName": "FL Studio ASIO",
          "offset": 0,
          "maxChannels": 8,
          "sampleRate": 44100,
          "blockSize": 256
        }
      }
    },
    {
      "plugin": "Fundamental",
      "version": "0.6.0",
      "model": "VCA",
      "pos": [
        24,
        0
      ],
      "params": [
        {
          "paramId": 0,
          "value": 0.500500143
        },
        {
          "paramId": 1,
          "value": 0.5
        }
      ]
    },
    {
      "plugin": "TheXOR",
      "version": "0.6.2",
      "model": "M581",
      "pos": [
        40,
        0
      ],
      "params": [
        {
          "paramId": 24,
          "value": 2.0
        },
        {
          "paramId": 0,
          "value": 1.0
        },
        {
          "paramId": 16,
          "value": 0.385999709
        },
        {
          "paramId": 8,
          "value": 3.0
        },
        {
          "paramId": 25,
          "value": 2.0
        },
        {
          "paramId": 1,
          "value": 3.0
        },
        {
          "paramId": 17,
          "value": 0.5
        },
        {
          "paramId": 9,
          "value": 3.0
        },
        {
          "paramId": 26,
          "value": 2.0
        },
        {
          "paramId": 2,
          "value": 1.0
        },
        {
          "paramId": 18,
          "value": 0.624500155
        },
        {
          "paramId": 10,
          "value": 3.0
        },
        {
          "paramId": 27,
          "value": 1.0
        },
        {
          "paramId": 3,
          "value": 2.0
        },
        {
          "paramId": 19,
          "value": 0.360500008
        },
        {
          "paramId": 11,
          "value": 3.0
        },
        {
          "paramId": 28,
          "value": 2.0
        },
        {
          "paramId": 4,
          "value": 2.0
        },
        {
          "paramId": 20,
          "value": 0.376999676
        },
        {
          "paramId": 12,
          "value": 3.0
        },
        {
          "paramId": 29,
          "value": 1.0
        },
        {
          "paramId": 5,
          "value": 2.0
        },
        {
          "paramId": 21,
          "value": 0.0960000157
        },
        {
          "paramId": 13,
          "value": 3.0
        },
        {
          "paramId": 30,
          "value": 2.0
        },
        {
          "paramId": 6,
          "value": 3.0
        },
        {
          "paramId": 22,
          "value": 0.250999898
        },
        {
          "paramId": 14,
          "value": 3.0
        },
        {
          "paramId": 31,
          "value": 2.0
        },
        {
          "paramId": 7,
          "value": 2.0
        },
        {
          "paramId": 23,
          "value": 0.251000017
        },
        {
          "paramId": 15,
          "value": 3.0
        },
        {
          "paramId": 32,
          "value": 0.127385005
        },
        {
          "paramId": 33,
          "value": 0.392269999
        },
        {
          "paramId": 37,
          "value": 1.0
        },
        {
          "paramId": 36,
          "value": 0.0
        },
        {
          "paramId": 34,
          "value": 8.0
        },
        {
          "paramId": 35,
          "value": 0.0
        }
      ],
      "data": {}
    },
    {
      "plugin": "AudibleInstruments",
      "version": "0.6.0",
      "model": "Braids",
      "pos": [
        0,
        0
      ],
      "params": [
        {
          "paramId": 6,
          "value": 0.216004163
        },
        {
          "paramId": 0,
          "value": 0.0
        },
        {
          "paramId": 1,
          "value": 0.0
        },
        {
          "paramId": 2,
          "value": 0.0
        },
        {
          "paramId": 3,
          "value": 0.643999159
        },
        {
          "paramId": 4,
          "value": 0.00399973802
        },
        {
          "paramId": 5,
          "value": 0.00749999983
        }
      ],
      "data": {
        "settings": [
          10,
          0,
          0,
          0,
          0,
          0,
          0,
          0,
          0,
          0,
          0,
          0,
          0,
          0,
          0,
          0,
          0,
          0,
          0,
          0
        ],
        "lowCpu": false
      }
    },
    {
      "plugin": "AmalgamatedHarmonics",
      "version": "0.6.1",
      "model": "ScaleQuantizer2",
      "pos": [
        40,
        1
      ],
      "params": [
        {
          "paramId": 0,
          "value": 0.0
        },
        {
          "paramId": 1,
          "value": 0.0
        },
        {
          "paramId": 10,
          "value": 0.0
        },
        {
          "paramId": 2,
          "value": 0.0
        },
        {
          "paramId": 3,
          "value": 0.0
        },
        {
          "paramId": 4,
          "value": 0.0
        },
        {
          "paramId": 5,
          "value": 0.0
        },
        {
          "paramId": 6,
          "value": 0.0
        },
        {
          "paramId": 7,
          "value": 0.0
        },
        {
          "paramId": 8,
          "value": 0.0
        },
        {
          "paramId": 9,
          "value": 0.0
        }
      ]
    },
    {
      "plugin": "Core",
      "version": "0.6.0",
      "model": "MIDIToCVInterface",
      "pos": [
        6,
        1
      ],
      "params": [],
      "data": {
        "divisions": [
          24,
          6
        ],
        "midi": {
          "driver": 4,
          "deviceName": "nanoKEY2 1",
          "channel": -1
        }
      }
    },
    {
      "plugin": "AS",
      "version": "0.6.8",
      "model": "BPMClock",
      "pos": [
        0,
        1
      ],
      "params": [
        {
          "paramId": 0,
          "value": 120.0
        },
        {
          "paramId": 1,
          "value": 1.0
        },
        {
          "paramId": 2,
          "value": 4.0
        },
        {
          "paramId": 3,
          "value": 1.0
        },
        {
          "paramId": 5,
          "value": 0.0
        },
        {
          "paramId": 4,
          "value": 0.0
        }
      ],
      "data": {
        "run": [
          1
        ]
      }
    }
  ],
  "wires": [
    {
      "color": {
        "r": 0.0470588282,
        "g": 0.556862772,
        "b": 0.0823529437,
        "a": 1.0
      },
      "outputModuleId": 0,
      "outputId": 0,
      "inputModuleId": 2,
      "inputId": 0
    },
    {
      "color": {
        "r": 0.0470588282,
        "g": 0.556862772,
        "b": 0.0823529437,
        "a": 1.0
      },
      "outputModuleId": 3,
      "outputId": 1,
      "inputModuleId": 0,
      "inputId": 4
    },
    {
      "color": {
        "r": 0.788235366,
        "g": 0.717647076,
        "b": 0.054901965,
        "a": 1.0
      },
      "outputModuleId": 5,
      "outputId": 0,
      "inputModuleId": 4,
      "inputId": 1
    },
    {
      "color": {
        "r": 0.0352941193,
        "g": 0.525490224,
        "b": 0.678431392,
        "a": 1.0
      },
      "outputModuleId": 3,
      "outputId": 0,
      "inputModuleId": 5,
      "inputId": 0
    },
    {
      "color": {
        "r": 0.0352941193,
        "g": 0.525490224,
        "b": 0.678431392,
        "a": 1.0
      },
      "outputModuleId": 4,
      "outputId": 0,
      "inputModuleId": 2,
      "inputId": 2
    },
    {
      "color": {
        "r": 0.788235366,
        "g": 0.717647076,
        "b": 0.054901965,
        "a": 1.0
      },
      "outputModuleId": 2,
      "outputId": 0,
      "inputModuleId": 2,
      "inputId": 5
    },
    {
      "color": {
        "r": 0.788235366,
        "g": 0.0941176564,
        "b": 0.278431386,
        "a": 1.0
      },
      "outputModuleId": 2,
      "outputId": 1,
      "inputModuleId": 1,
      "inputId": 0
    },
    {
      "color": {
        "r": 0.0470588282,
        "g": 0.556862772,
        "b": 0.0823529437,
        "a": 1.0
      },
      "outputModuleId": 2,
      "outputId": 1,
      "inputModuleId": 1,
      "inputId": 1
    },
    {
      "color": {
        "r": 0.0470588282,
        "g": 0.556862772,
        "b": 0.0823529437,
        "a": 1.0
      },
      "outputModuleId": 7,
      "outputId": 0,
      "inputModuleId": 3,
      "inputId": 0
    },
    {
      "color": {
        "r": 0.788235366,
        "g": 0.717647076,
        "b": 0.054901965,
        "a": 1.0
      },
      "outputModuleId": 7,
      "outputId": 4,
      "inputModuleId": 3,
      "inputId": 1
    },
    {
      "color": {
        "r": 0.0352941193,
        "g": 0.525490224,
        "b": 0.678431392,
        "a": 1.0
      },
      "outputModuleId": 6,
      "outputId": 0,
      "inputModuleId": 5,
      "inputId": 10
    }
  ]
}