{
  "version": "0.6.0",
  "modules": [
    {
      "plugin": "Core",
      "version": "0.6.0",
      "model": "AudioInterface",
      "pos": [
        72,
        2
      ],
      "params": [],
      "data": {
        "audio": {
          "driver": 7,
          "deviceName": "FL Studio ASIO",
          "offset": 0,
          "maxChannels": 8,
          "sampleRate": 44100,
          "blockSize": 256
        }
      }
    },
    {
      "plugin": "AS",
      "version": "0.6.7",
      "model": "VCA",
      "pos": [
        50,
        2
      ],
      "params": [
        {
          "paramId": 0,
          "value": 1.0
        },
        {
          "paramId": 1,
          "value": 1.0
        },
        {
          "paramId": 2,
          "value": 1.0
        },
        {
          "paramId": 3,
          "value": 1.0
        }
      ]
    },
    {
      "plugin": "AudibleInstruments",
      "version": "0.6.0",
      "model": "Elements",
      "pos": [
        35,
        1
      ],
      "params": [
        {
          "paramId": 0,
          "value": 1.0
        },
        {
          "paramId": 1,
          "value": 0.0
        },
        {
          "paramId": 2,
          "value": 0.0
        },
        {
          "paramId": 3,
          "value": 1.0
        },
        {
          "paramId": 4,
          "value": 0.0
        },
        {
          "paramId": 5,
          "value": 0.0
        },
        {
          "paramId": 6,
          "value": 0.0
        },
        {
          "paramId": 7,
          "value": 0.5
        },
        {
          "paramId": 8,
          "value": 0.227999777
        },
        {
          "paramId": 9,
          "value": 0.70600003
        },
        {
          "paramId": 10,
          "value": 0.0799999908
        },
        {
          "paramId": 11,
          "value": 0.5
        },
        {
          "paramId": 12,
          "value": 0.5
        },
        {
          "paramId": 13,
          "value": 0.0120000001
        },
        {
          "paramId": 14,
          "value": 0.0
        },
        {
          "paramId": 15,
          "value": 0.5
        },
        {
          "paramId": 16,
          "value": 0.689999878
        },
        {
          "paramId": 17,
          "value": 0.0
        },
        {
          "paramId": 18,
          "value": 0.0
        },
        {
          "paramId": 19,
          "value": 0.0
        },
        {
          "paramId": 20,
          "value": 0.236999944
        },
        {
          "paramId": 21,
          "value": 0.119999826
        },
        {
          "paramId": 22,
          "value": 0.0
        },
        {
          "paramId": 23,
          "value": 0.0
        },
        {
          "paramId": 24,
          "value": 0.0
        },
        {
          "paramId": 25,
          "value": 0.0
        },
        {
          "paramId": 26,
          "value": 0.0
        },
        {
          "paramId": 27,
          "value": 0.0
        }
      ],
      "data": {
        "model": 0
      }
    },
    {
      "plugin": "TheXOR",
      "version": "0.6.2",
      "model": "M581",
      "pos": [
        6,
        0
      ],
      "params": [
        {
          "paramId": 24,
          "value": 2.0
        },
        {
          "paramId": 0,
          "value": 2.0
        },
        {
          "paramId": 16,
          "value": 0.741000116
        },
        {
          "paramId": 8,
          "value": 3.0
        },
        {
          "paramId": 25,
          "value": 2.0
        },
        {
          "paramId": 1,
          "value": 2.0
        },
        {
          "paramId": 17,
          "value": 0.827499866
        },
        {
          "paramId": 9,
          "value": 3.0
        },
        {
          "paramId": 26,
          "value": 2.0
        },
        {
          "paramId": 2,
          "value": 2.0
        },
        {
          "paramId": 18,
          "value": 0.775999904
        },
        {
          "paramId": 10,
          "value": 3.0
        },
        {
          "paramId": 27,
          "value": 2.0
        },
        {
          "paramId": 3,
          "value": 2.0
        },
        {
          "paramId": 19,
          "value": 0.63650012
        },
        {
          "paramId": 11,
          "value": 3.0
        },
        {
          "paramId": 28,
          "value": 2.0
        },
        {
          "paramId": 4,
          "value": 2.0
        },
        {
          "paramId": 20,
          "value": 0.540500283
        },
        {
          "paramId": 12,
          "value": 3.0
        },
        {
          "paramId": 29,
          "value": 2.0
        },
        {
          "paramId": 5,
          "value": 2.0
        },
        {
          "paramId": 21,
          "value": 0.47299993
        },
        {
          "paramId": 13,
          "value": 3.0
        },
        {
          "paramId": 30,
          "value": 2.0
        },
        {
          "paramId": 6,
          "value": 2.0
        },
        {
          "paramId": 22,
          "value": 0.590000153
        },
        {
          "paramId": 14,
          "value": 3.0
        },
        {
          "paramId": 31,
          "value": 2.0
        },
        {
          "paramId": 7,
          "value": 2.0
        },
        {
          "paramId": 23,
          "value": 0.732000113
        },
        {
          "paramId": 15,
          "value": 3.0
        },
        {
          "paramId": 32,
          "value": 0.25
        },
        {
          "paramId": 33,
          "value": 0.5
        },
        {
          "paramId": 37,
          "value": 1.0
        },
        {
          "paramId": 36,
          "value": 0.0
        },
        {
          "paramId": 34,
          "value": 8.0
        },
        {
          "paramId": 35,
          "value": 0.0
        }
      ],
      "data": {}
    },
    {
      "plugin": "AS",
      "version": "0.6.7",
      "model": "BPMClock",
      "pos": [
        0,
        0
      ],
      "params": [
        {
          "paramId": 0,
          "value": 129.76503
        },
        {
          "paramId": 1,
          "value": 1.0
        },
        {
          "paramId": 2,
          "value": 4.0
        },
        {
          "paramId": 3,
          "value": 1.0
        },
        {
          "paramId": 5,
          "value": 0.0
        },
        {
          "paramId": 4,
          "value": 0.0
        }
      ],
      "data": {
        "run": [
          1
        ]
      }
    },
    {
      "plugin": "TheXOR",
      "version": "0.6.2",
      "model": "M581",
      "pos": [
        6,
        1
      ],
      "params": [
        {
          "paramId": 24,
          "value": 2.0
        },
        {
          "paramId": 0,
          "value": 2.0
        },
        {
          "paramId": 16,
          "value": 0.183000013
        },
        {
          "paramId": 8,
          "value": 3.0
        },
        {
          "paramId": 25,
          "value": 2.0
        },
        {
          "paramId": 1,
          "value": 2.0
        },
        {
          "paramId": 17,
          "value": 0.288500011
        },
        {
          "paramId": 9,
          "value": 3.0
        },
        {
          "paramId": 26,
          "value": 2.0
        },
        {
          "paramId": 2,
          "value": 2.0
        },
        {
          "paramId": 18,
          "value": 0.537499964
        },
        {
          "paramId": 10,
          "value": 3.0
        },
        {
          "paramId": 27,
          "value": 2.0
        },
        {
          "paramId": 3,
          "value": 2.0
        },
        {
          "paramId": 19,
          "value": 0.459500134
        },
        {
          "paramId": 11,
          "value": 3.0
        },
        {
          "paramId": 28,
          "value": 2.0
        },
        {
          "paramId": 4,
          "value": 2.0
        },
        {
          "paramId": 20,
          "value": 0.5
        },
        {
          "paramId": 12,
          "value": 3.0
        },
        {
          "paramId": 29,
          "value": 2.0
        },
        {
          "paramId": 5,
          "value": 2.0
        },
        {
          "paramId": 21,
          "value": 0.553999782
        },
        {
          "paramId": 13,
          "value": 3.0
        },
        {
          "paramId": 30,
          "value": 2.0
        },
        {
          "paramId": 6,
          "value": 2.0
        },
        {
          "paramId": 22,
          "value": 0.406999946
        },
        {
          "paramId": 14,
          "value": 3.0
        },
        {
          "paramId": 31,
          "value": 2.0
        },
        {
          "paramId": 7,
          "value": 2.0
        },
        {
          "paramId": 23,
          "value": 0.256500006
        },
        {
          "paramId": 15,
          "value": 3.0
        },
        {
          "paramId": 32,
          "value": 0.25
        },
        {
          "paramId": 33,
          "value": 0.5
        },
        {
          "paramId": 37,
          "value": 0.0
        },
        {
          "paramId": 36,
          "value": 0.0
        },
        {
          "paramId": 34,
          "value": 8.0
        },
        {
          "paramId": 35,
          "value": 0.0
        }
      ],
      "data": {}
    },
    {
      "plugin": "Core",
      "version": "0.6.0",
      "model": "MIDIToCVInterface",
      "pos": [
        35,
        0
      ],
      "params": [],
      "data": {
        "divisions": [
          24,
          6
        ],
        "midi": {
          "driver": 4,
          "deviceName": "nanoKEY2 1",
          "channel": -1
        }
      }
    },
    {
      "plugin": "AS",
      "version": "0.6.7",
      "model": "QuadVCA",
      "pos": [
        56,
        2
      ],
      "params": [
        {
          "paramId": 0,
          "value": 1.0
        },
        {
          "paramId": 1,
          "value": 0.5
        },
        {
          "paramId": 2,
          "value": 0.5
        },
        {
          "paramId": 3,
          "value": 0.5
        },
        {
          "paramId": 4,
          "value": 1.0
        },
        {
          "paramId": 5,
          "value": 1.0
        },
        {
          "paramId": 6,
          "value": 1.0
        },
        {
          "paramId": 7,
          "value": 1.0
        }
      ]
    },
    {
      "plugin": "AS",
      "version": "0.6.7",
      "model": "QuadVCA",
      "pos": [
        64,
        2
      ],
      "params": [
        {
          "paramId": 0,
          "value": 1.0
        },
        {
          "paramId": 1,
          "value": 0.5
        },
        {
          "paramId": 2,
          "value": 0.5
        },
        {
          "paramId": 3,
          "value": 0.5
        },
        {
          "paramId": 4,
          "value": 1.0
        },
        {
          "paramId": 5,
          "value": 1.0
        },
        {
          "paramId": 6,
          "value": 1.0
        },
        {
          "paramId": 7,
          "value": 1.0
        }
      ]
    },
    {
      "plugin": "Befaco",
      "version": "0.6.0",
      "model": "ABC",
      "pos": [
        0,
        1
      ],
      "params": [
        {
          "paramId": 0,
          "value": 0.0
        },
        {
          "paramId": 1,
          "value": 0.0
        },
        {
          "paramId": 2,
          "value": 0.0
        },
        {
          "paramId": 3,
          "value": 1.0
        }
      ]
    },
    {
      "plugin": "AudibleInstruments",
      "version": "0.6.0",
      "model": "Clouds",
      "pos": [
        63,
        0
      ],
      "params": [
        {
          "paramId": 3,
          "value": 0.5
        },
        {
          "paramId": 4,
          "value": 0.5
        },
        {
          "paramId": 5,
          "value": 0.0
        },
        {
          "paramId": 6,
          "value": 0.5
        },
        {
          "paramId": 7,
          "value": 0.765500307
        },
        {
          "paramId": 8,
          "value": 0.858499944
        },
        {
          "paramId": 9,
          "value": 0.91599983
        },
        {
          "paramId": 10,
          "value": 0.0
        },
        {
          "paramId": 11,
          "value": 0.0
        },
        {
          "paramId": 12,
          "value": 0.0
        },
        {
          "paramId": 0,
          "value": 0.0
        },
        {
          "paramId": 1,
          "value": 0.0
        },
        {
          "paramId": 2,
          "value": 0.0
        }
      ],
      "data": {
        "playback": 0,
        "quality": 0,
        "blendMode": 0
      }
    },
    {
      "plugin": "AudibleInstruments",
      "version": "0.6.0",
      "model": "Tides",
      "pos": [
        43,
        0
      ],
      "params": [
        {
          "paramId": 0,
          "value": 0.0
        },
        {
          "paramId": 1,
          "value": 0.0
        },
        {
          "paramId": 2,
          "value": 22.0800152
        },
        {
          "paramId": 3,
          "value": 12.0
        },
        {
          "paramId": 4,
          "value": 1.0
        },
        {
          "paramId": 5,
          "value": -0.522999465
        },
        {
          "paramId": 6,
          "value": 0.315999806
        }
      ],
      "data": {
        "mode": 1,
        "range": 1,
        "sheep": false
      }
    },
    {
      "plugin": "Befaco",
      "version": "0.6.0",
      "model": "SlewLimiter",
      "pos": [
        57,
        0
      ],
      "params": [
        {
          "paramId": 0,
          "value": 0.0
        },
        {
          "paramId": 1,
          "value": 0.0
        },
        {
          "paramId": 2,
          "value": 0.680999875
        }
      ]
    }
  ],
  "wires": [
    {
      "color": {
        "r": 0.0352941193,
        "g": 0.525490224,
        "b": 0.678431392,
        "a": 1.0
      },
      "outputModuleId": 2,
      "outputId": 0,
      "inputModuleId": 1,
      "inputId": 1
    },
    {
      "color": {
        "r": 0.788235366,
        "g": 0.717647076,
        "b": 0.054901965,
        "a": 1.0
      },
      "outputModuleId": 2,
      "outputId": 1,
      "inputModuleId": 1,
      "inputId": 3
    },
    {
      "color": {
        "r": 0.0470588282,
        "g": 0.556862772,
        "b": 0.0823529437,
        "a": 1.0
      },
      "outputModuleId": 1,
      "outputId": 1,
      "inputModuleId": 8,
      "inputId": 1
    },
    {
      "color": {
        "r": 0.788235366,
        "g": 0.0941176564,
        "b": 0.278431386,
        "a": 1.0
      },
      "outputModuleId": 3,
      "outputId": 0,
      "inputModuleId": 2,
      "inputId": 9
    },
    {
      "color": {
        "r": 0.788235366,
        "g": 0.0941176564,
        "b": 0.278431386,
        "a": 1.0
      },
      "outputModuleId": 1,
      "outputId": 0,
      "inputModuleId": 7,
      "inputId": 1
    },
    {
      "color": {
        "r": 0.0352941193,
        "g": 0.525490224,
        "b": 0.678431392,
        "a": 1.0
      },
      "outputModuleId": 4,
      "outputId": 0,
      "inputModuleId": 3,
      "inputId": 0
    },
    {
      "color": {
        "r": 0.788235366,
        "g": 0.717647076,
        "b": 0.054901965,
        "a": 1.0
      },
      "outputModuleId": 4,
      "outputId": 0,
      "inputModuleId": 5,
      "inputId": 0
    },
    {
      "color": {
        "r": 0.788235366,
        "g": 0.0941176564,
        "b": 0.278431386,
        "a": 1.0
      },
      "outputModuleId": 4,
      "outputId": 4,
      "inputModuleId": 3,
      "inputId": 1
    },
    {
      "color": {
        "r": 0.0470588282,
        "g": 0.556862772,
        "b": 0.0823529437,
        "a": 1.0
      },
      "outputModuleId": 4,
      "outputId": 4,
      "inputModuleId": 5,
      "inputId": 1
    },
    {
      "color": {
        "r": 0.0470588282,
        "g": 0.556862772,
        "b": 0.0823529437,
        "a": 1.0
      },
      "outputModuleId": 7,
      "outputId": 3,
      "inputModuleId": 0,
      "inputId": 0
    },
    {
      "color": {
        "r": 0.788235366,
        "g": 0.717647076,
        "b": 0.054901965,
        "a": 1.0
      },
      "outputModuleId": 8,
      "outputId": 3,
      "inputModuleId": 0,
      "inputId": 1
    },
    {
      "color": {
        "r": 0.788235366,
        "g": 0.717647076,
        "b": 0.054901965,
        "a": 1.0
      },
      "outputModuleId": 4,
      "outputId": 3,
      "inputModuleId": 2,
      "inputId": 10
    },
    {
      "color": {
        "r": 0.788235366,
        "g": 0.717647076,
        "b": 0.054901965,
        "a": 1.0
      },
      "outputModuleId": 5,
      "outputId": 0,
      "inputModuleId": 2,
      "inputId": 3
    },
    {
      "color": {
        "r": 0.788235366,
        "g": 0.717647076,
        "b": 0.054901965,
        "a": 1.0
      },
      "outputModuleId": 3,
      "outputId": 1,
      "inputModuleId": 2,
      "inputId": 2
    },
    {
      "color": {
        "r": 0.0470588282,
        "g": 0.556862772,
        "b": 0.0823529437,
        "a": 1.0
      },
      "outputModuleId": 10,
      "outputId": 0,
      "inputModuleId": 7,
      "inputId": 3
    },
    {
      "color": {
        "r": 0.0352941193,
        "g": 0.525490224,
        "b": 0.678431392,
        "a": 1.0
      },
      "outputModuleId": 10,
      "outputId": 1,
      "inputModuleId": 8,
      "inputId": 3
    },
    {
      "color": {
        "r": 0.788235366,
        "g": 0.0941176564,
        "b": 0.278431386,
        "a": 1.0
      },
      "outputModuleId": 11,
      "outputId": 3,
      "inputModuleId": 10,
      "inputId": 6
    },
    {
      "color": {
        "r": 0.788235366,
        "g": 0.0941176564,
        "b": 0.278431386,
        "a": 1.0
      },
      "outputModuleId": 4,
      "outputId": 1,
      "inputModuleId": 10,
      "inputId": 1
    },
    {
      "color": {
        "r": 0.0470588282,
        "g": 0.556862772,
        "b": 0.0823529437,
        "a": 1.0
      },
      "outputModuleId": 12,
      "outputId": 0,
      "inputModuleId": 11,
      "inputId": 7
    },
    {
      "color": {
        "r": 0.0352941193,
        "g": 0.525490224,
        "b": 0.678431392,
        "a": 1.0
      },
      "outputModuleId": 6,
      "outputId": 0,
      "inputModuleId": 11,
      "inputId": 6
    },
    {
      "color": {
        "r": 0.0470588282,
        "g": 0.556862772,
        "b": 0.0823529437,
        "a": 1.0
      },
      "outputModuleId": 4,
      "outputId": 3,
      "inputModuleId": 12,
      "inputId": 2
    }
  ]
}