{
  "version": "0.6.0",
  "modules": [
    {
      "plugin": "Core",
      "version": "0.6.0",
      "model": "AudioInterface",
      "pos": [
        59,
        1
      ],
      "params": [],
      "data": {
        "audio": {
          "driver": 7,
          "deviceName": "FL Studio ASIO",
          "offset": 0,
          "maxChannels": 8,
          "sampleRate": 44100,
          "blockSize": 256
        }
      }
    },
    {
      "plugin": "AS",
      "version": "0.6.8",
      "model": "VCA",
      "pos": [
        37,
        1
      ],
      "params": [
        {
          "paramId": 0,
          "value": 1.0
        },
        {
          "paramId": 1,
          "value": 1.0
        },
        {
          "paramId": 2,
          "value": 1.0
        },
        {
          "paramId": 3,
          "value": 1.0
        }
      ]
    },
    {
      "plugin": "AudibleInstruments",
      "version": "0.6.0",
      "model": "Elements",
      "pos": [
        37,
        0
      ],
      "params": [
        {
          "paramId": 0,
          "value": 1.0
        },
        {
          "paramId": 1,
          "value": 0.0
        },
        {
          "paramId": 2,
          "value": 0.0
        },
        {
          "paramId": 3,
          "value": 1.0
        },
        {
          "paramId": 4,
          "value": 0.0
        },
        {
          "paramId": 5,
          "value": 0.0
        },
        {
          "paramId": 6,
          "value": 0.0
        },
        {
          "paramId": 7,
          "value": 0.5
        },
        {
          "paramId": 8,
          "value": 0.227999777
        },
        {
          "paramId": 9,
          "value": 0.70600003
        },
        {
          "paramId": 10,
          "value": 0.0799999908
        },
        {
          "paramId": 11,
          "value": 0.5
        },
        {
          "paramId": 12,
          "value": 0.5
        },
        {
          "paramId": 13,
          "value": 0.0120000001
        },
        {
          "paramId": 14,
          "value": 0.0
        },
        {
          "paramId": 15,
          "value": 0.5
        },
        {
          "paramId": 16,
          "value": 0.689999878
        },
        {
          "paramId": 17,
          "value": 0.0
        },
        {
          "paramId": 18,
          "value": 0.0
        },
        {
          "paramId": 19,
          "value": 0.0
        },
        {
          "paramId": 20,
          "value": 0.236999944
        },
        {
          "paramId": 21,
          "value": 0.119999826
        },
        {
          "paramId": 22,
          "value": 0.0
        },
        {
          "paramId": 23,
          "value": 0.0
        },
        {
          "paramId": 24,
          "value": 0.0
        },
        {
          "paramId": 25,
          "value": 0.0
        },
        {
          "paramId": 26,
          "value": 0.0
        },
        {
          "paramId": 27,
          "value": 0.0
        }
      ],
      "data": {
        "model": 0
      }
    },
    {
      "plugin": "TheXOR",
      "version": "0.6.2",
      "model": "M581",
      "pos": [
        8,
        0
      ],
      "params": [
        {
          "paramId": 24,
          "value": 1.0
        },
        {
          "paramId": 0,
          "value": 2.0
        },
        {
          "paramId": 16,
          "value": 0.741000116
        },
        {
          "paramId": 8,
          "value": 3.0
        },
        {
          "paramId": 25,
          "value": 1.0
        },
        {
          "paramId": 1,
          "value": 2.0
        },
        {
          "paramId": 17,
          "value": 0.855999827
        },
        {
          "paramId": 9,
          "value": 3.0
        },
        {
          "paramId": 26,
          "value": 1.0
        },
        {
          "paramId": 2,
          "value": 2.0
        },
        {
          "paramId": 18,
          "value": 0.775999904
        },
        {
          "paramId": 10,
          "value": 3.0
        },
        {
          "paramId": 27,
          "value": 1.0
        },
        {
          "paramId": 3,
          "value": 2.0
        },
        {
          "paramId": 19,
          "value": 0.684500039
        },
        {
          "paramId": 11,
          "value": 3.0
        },
        {
          "paramId": 28,
          "value": 1.0
        },
        {
          "paramId": 4,
          "value": 2.0
        },
        {
          "paramId": 20,
          "value": 0.575000346
        },
        {
          "paramId": 12,
          "value": 3.0
        },
        {
          "paramId": 29,
          "value": 1.0
        },
        {
          "paramId": 5,
          "value": 2.0
        },
        {
          "paramId": 21,
          "value": 0.537500024
        },
        {
          "paramId": 13,
          "value": 3.0
        },
        {
          "paramId": 30,
          "value": 1.0
        },
        {
          "paramId": 6,
          "value": 2.0
        },
        {
          "paramId": 22,
          "value": 0.590000153
        },
        {
          "paramId": 14,
          "value": 3.0
        },
        {
          "paramId": 31,
          "value": 1.0
        },
        {
          "paramId": 7,
          "value": 2.0
        },
        {
          "paramId": 23,
          "value": 0.732000113
        },
        {
          "paramId": 15,
          "value": 3.0
        },
        {
          "paramId": 32,
          "value": 0.25
        },
        {
          "paramId": 33,
          "value": 0.5
        },
        {
          "paramId": 37,
          "value": 1.0
        },
        {
          "paramId": 36,
          "value": 0.0
        },
        {
          "paramId": 34,
          "value": 8.0
        },
        {
          "paramId": 35,
          "value": 0.0
        }
      ],
      "data": {}
    },
    {
      "plugin": "AS",
      "version": "0.6.8",
      "model": "BPMClock",
      "pos": [
        0,
        0
      ],
      "params": [
        {
          "paramId": 0,
          "value": 129.76503
        },
        {
          "paramId": 1,
          "value": 1.0
        },
        {
          "paramId": 2,
          "value": 4.0
        },
        {
          "paramId": 3,
          "value": 1.0
        },
        {
          "paramId": 5,
          "value": 0.0
        },
        {
          "paramId": 4,
          "value": 0.0
        }
      ],
      "data": {
        "run": [
          0
        ]
      }
    },
    {
      "plugin": "TheXOR",
      "version": "0.6.2",
      "model": "M581",
      "pos": [
        8,
        1
      ],
      "params": [
        {
          "paramId": 24,
          "value": 1.0
        },
        {
          "paramId": 0,
          "value": 2.0
        },
        {
          "paramId": 16,
          "value": 0.183000013
        },
        {
          "paramId": 8,
          "value": 3.0
        },
        {
          "paramId": 25,
          "value": 1.0
        },
        {
          "paramId": 1,
          "value": 2.0
        },
        {
          "paramId": 17,
          "value": 0.288500011
        },
        {
          "paramId": 9,
          "value": 3.0
        },
        {
          "paramId": 26,
          "value": 1.0
        },
        {
          "paramId": 2,
          "value": 2.0
        },
        {
          "paramId": 18,
          "value": 0.403999925
        },
        {
          "paramId": 10,
          "value": 3.0
        },
        {
          "paramId": 27,
          "value": 1.0
        },
        {
          "paramId": 3,
          "value": 2.0
        },
        {
          "paramId": 19,
          "value": 0.429500133
        },
        {
          "paramId": 11,
          "value": 3.0
        },
        {
          "paramId": 28,
          "value": 1.0
        },
        {
          "paramId": 4,
          "value": 2.0
        },
        {
          "paramId": 20,
          "value": 0.447499961
        },
        {
          "paramId": 12,
          "value": 3.0
        },
        {
          "paramId": 29,
          "value": 1.0
        },
        {
          "paramId": 5,
          "value": 2.0
        },
        {
          "paramId": 21,
          "value": 0.478999734
        },
        {
          "paramId": 13,
          "value": 3.0
        },
        {
          "paramId": 30,
          "value": 1.0
        },
        {
          "paramId": 6,
          "value": 2.0
        },
        {
          "paramId": 22,
          "value": 0.372499883
        },
        {
          "paramId": 14,
          "value": 3.0
        },
        {
          "paramId": 31,
          "value": 1.0
        },
        {
          "paramId": 7,
          "value": 2.0
        },
        {
          "paramId": 23,
          "value": 0.205500007
        },
        {
          "paramId": 15,
          "value": 3.0
        },
        {
          "paramId": 32,
          "value": 0.25
        },
        {
          "paramId": 33,
          "value": 0.5
        },
        {
          "paramId": 37,
          "value": 0.0
        },
        {
          "paramId": 36,
          "value": 0.0
        },
        {
          "paramId": 34,
          "value": 8.0
        },
        {
          "paramId": 35,
          "value": 0.0
        }
      ],
      "data": {}
    },
    {
      "plugin": "Core",
      "version": "0.6.0",
      "model": "MIDIToCVInterface",
      "pos": [
        37,
        2
      ],
      "params": [],
      "data": {
        "divisions": [
          24,
          6
        ],
        "midi": {
          "driver": 4,
          "deviceName": "nanoKEY2 1",
          "channel": -1
        }
      }
    },
    {
      "plugin": "AS",
      "version": "0.6.8",
      "model": "QuadVCA",
      "pos": [
        43,
        1
      ],
      "params": [
        {
          "paramId": 0,
          "value": 1.0
        },
        {
          "paramId": 1,
          "value": 0.5
        },
        {
          "paramId": 2,
          "value": 0.818499684
        },
        {
          "paramId": 3,
          "value": 0.5
        },
        {
          "paramId": 4,
          "value": 1.0
        },
        {
          "paramId": 5,
          "value": 1.0
        },
        {
          "paramId": 6,
          "value": 1.0
        },
        {
          "paramId": 7,
          "value": 1.0
        }
      ]
    },
    {
      "plugin": "AS",
      "version": "0.6.8",
      "model": "QuadVCA",
      "pos": [
        51,
        1
      ],
      "params": [
        {
          "paramId": 0,
          "value": 1.0
        },
        {
          "paramId": 1,
          "value": 0.5
        },
        {
          "paramId": 2,
          "value": 0.829000056
        },
        {
          "paramId": 3,
          "value": 0.5
        },
        {
          "paramId": 4,
          "value": 1.0
        },
        {
          "paramId": 5,
          "value": 1.0
        },
        {
          "paramId": 6,
          "value": 1.0
        },
        {
          "paramId": 7,
          "value": 1.0
        }
      ]
    },
    {
      "plugin": "AudibleInstruments",
      "version": "0.6.0",
      "model": "Clouds",
      "pos": [
        65,
        2
      ],
      "params": [
        {
          "paramId": 3,
          "value": 0.5
        },
        {
          "paramId": 4,
          "value": 0.5
        },
        {
          "paramId": 5,
          "value": 0.0
        },
        {
          "paramId": 6,
          "value": 0.5
        },
        {
          "paramId": 7,
          "value": 0.765500307
        },
        {
          "paramId": 8,
          "value": 0.552500188
        },
        {
          "paramId": 9,
          "value": 0.91599983
        },
        {
          "paramId": 10,
          "value": 0.0
        },
        {
          "paramId": 11,
          "value": 0.0
        },
        {
          "paramId": 12,
          "value": 0.0
        },
        {
          "paramId": 0,
          "value": 0.0
        },
        {
          "paramId": 1,
          "value": 0.0
        },
        {
          "paramId": 2,
          "value": 0.0
        }
      ],
      "data": {
        "playback": 0,
        "quality": 0,
        "blendMode": 0
      }
    },
    {
      "plugin": "AudibleInstruments",
      "version": "0.6.0",
      "model": "Tides",
      "pos": [
        45,
        2
      ],
      "params": [
        {
          "paramId": 0,
          "value": 0.0
        },
        {
          "paramId": 1,
          "value": 0.0
        },
        {
          "paramId": 2,
          "value": 22.0800152
        },
        {
          "paramId": 3,
          "value": 12.0
        },
        {
          "paramId": 4,
          "value": 0.50799948
        },
        {
          "paramId": 5,
          "value": -0.522999465
        },
        {
          "paramId": 6,
          "value": 0.315999806
        }
      ],
      "data": {
        "mode": 1,
        "range": 1,
        "sheep": false
      }
    },
    {
      "plugin": "Befaco",
      "version": "0.6.0",
      "model": "SlewLimiter",
      "pos": [
        59,
        2
      ],
      "params": [
        {
          "paramId": 0,
          "value": 0.0
        },
        {
          "paramId": 1,
          "value": 0.0
        },
        {
          "paramId": 2,
          "value": 0.659999907
        }
      ]
    },
    {
      "plugin": "TheXOR",
      "version": "0.6.2",
      "model": "M581",
      "pos": [
        8,
        2
      ],
      "params": [
        {
          "paramId": 24,
          "value": 2.0
        },
        {
          "paramId": 0,
          "value": 2.0
        },
        {
          "paramId": 16,
          "value": 0.34799996
        },
        {
          "paramId": 8,
          "value": 3.0
        },
        {
          "paramId": 25,
          "value": 2.0
        },
        {
          "paramId": 1,
          "value": 2.0
        },
        {
          "paramId": 17,
          "value": 0.288500011
        },
        {
          "paramId": 9,
          "value": 3.0
        },
        {
          "paramId": 26,
          "value": 2.0
        },
        {
          "paramId": 2,
          "value": 2.0
        },
        {
          "paramId": 18,
          "value": 0.39049989
        },
        {
          "paramId": 10,
          "value": 3.0
        },
        {
          "paramId": 27,
          "value": 2.0
        },
        {
          "paramId": 3,
          "value": 2.0
        },
        {
          "paramId": 19,
          "value": 0.429500133
        },
        {
          "paramId": 11,
          "value": 3.0
        },
        {
          "paramId": 28,
          "value": 2.0
        },
        {
          "paramId": 4,
          "value": 2.0
        },
        {
          "paramId": 20,
          "value": 0.447499961
        },
        {
          "paramId": 12,
          "value": 3.0
        },
        {
          "paramId": 29,
          "value": 2.0
        },
        {
          "paramId": 5,
          "value": 2.0
        },
        {
          "paramId": 21,
          "value": 0.478999734
        },
        {
          "paramId": 13,
          "value": 3.0
        },
        {
          "paramId": 30,
          "value": 2.0
        },
        {
          "paramId": 6,
          "value": 2.0
        },
        {
          "paramId": 22,
          "value": 0.372499883
        },
        {
          "paramId": 14,
          "value": 3.0
        },
        {
          "paramId": 31,
          "value": 2.0
        },
        {
          "paramId": 7,
          "value": 2.0
        },
        {
          "paramId": 23,
          "value": 0.280499995
        },
        {
          "paramId": 15,
          "value": 3.0
        },
        {
          "paramId": 32,
          "value": 0.25
        },
        {
          "paramId": 33,
          "value": 0.5
        },
        {
          "paramId": 37,
          "value": 1.0
        },
        {
          "paramId": 36,
          "value": 0.0
        },
        {
          "paramId": 34,
          "value": 8.0
        },
        {
          "paramId": 35,
          "value": 0.0
        }
      ],
      "data": {}
    },
    {
      "plugin": "ESeries",
      "version": "0.6.0",
      "model": "E340",
      "pos": [
        0,
        4
      ],
      "params": [
        {
          "paramId": 0,
          "value": -28.0800076
        },
        {
          "paramId": 1,
          "value": 0.0
        },
        {
          "paramId": 2,
          "value": 0.0
        },
        {
          "paramId": 3,
          "value": 1.0
        },
        {
          "paramId": 4,
          "value": 0.852000237
        },
        {
          "paramId": 5,
          "value": 0.772499979
        },
        {
          "paramId": 6,
          "value": 2.0
        }
      ]
    },
    {
      "plugin": "Fundamental",
      "version": "0.6.0",
      "model": "ADSR",
      "pos": [
        14,
        4
      ],
      "params": [
        {
          "paramId": 0,
          "value": 0.117000021
        },
        {
          "paramId": 1,
          "value": 0.403999954
        },
        {
          "paramId": 2,
          "value": 1.0
        },
        {
          "paramId": 3,
          "value": 0.678499639
        }
      ]
    },
    {
      "plugin": "AS",
      "version": "0.6.8",
      "model": "VCA",
      "pos": [
        22,
        4
      ],
      "params": [
        {
          "paramId": 0,
          "value": 1.0
        },
        {
          "paramId": 1,
          "value": 1.0
        },
        {
          "paramId": 2,
          "value": 0.0
        },
        {
          "paramId": 3,
          "value": 0.0
        }
      ]
    },
    {
      "plugin": "AS",
      "version": "0.6.8",
      "model": "ReverbStereoFx",
      "pos": [
        69,
        1
      ],
      "params": [
        {
          "paramId": 0,
          "value": 0.630324662
        },
        {
          "paramId": 1,
          "value": 0.5
        },
        {
          "paramId": 2,
          "value": 1.0
        },
        {
          "paramId": 3,
          "value": 0.0
        }
      ],
      "data": {
        "as_FxBypass": [
          false
        ]
      }
    },
    {
      "plugin": "AudibleInstruments",
      "version": "0.6.0",
      "model": "Rings",
      "pos": [
        8,
        3
      ],
      "params": [
        {
          "paramId": 0,
          "value": 0.0
        },
        {
          "paramId": 1,
          "value": 0.0
        },
        {
          "paramId": 2,
          "value": 7.67997599
        },
        {
          "paramId": 3,
          "value": 0.64200002
        },
        {
          "paramId": 4,
          "value": 0.771500647
        },
        {
          "paramId": 5,
          "value": 0.750500083
        },
        {
          "paramId": 6,
          "value": 0.259999514
        },
        {
          "paramId": 7,
          "value": 0.0
        },
        {
          "paramId": 8,
          "value": 0.0
        },
        {
          "paramId": 9,
          "value": 0.0
        },
        {
          "paramId": 10,
          "value": 0.0
        },
        {
          "paramId": 11,
          "value": 0.0
        }
      ],
      "data": {
        "polyphony": 0,
        "model": 1,
        "easterEgg": false
      }
    },
    {
      "plugin": "AudibleInstruments",
      "version": "0.6.0",
      "model": "Tides",
      "pos": [
        22,
        3
      ],
      "params": [
        {
          "paramId": 0,
          "value": 0.0
        },
        {
          "paramId": 1,
          "value": 0.0
        },
        {
          "paramId": 2,
          "value": 0.0
        },
        {
          "paramId": 3,
          "value": 0.0
        },
        {
          "paramId": 4,
          "value": 0.0
        },
        {
          "paramId": 5,
          "value": 0.0
        },
        {
          "paramId": 6,
          "value": 0.0
        }
      ],
      "data": {
        "mode": 2,
        "range": 2,
        "sheep": false
      }
    },
    {
      "plugin": "Fundamental",
      "version": "0.6.0",
      "model": "8vert",
      "pos": [
        0,
        1
      ],
      "params": [
        {
          "paramId": 0,
          "value": 1.0
        },
        {
          "paramId": 1,
          "value": 0.0
        },
        {
          "paramId": 2,
          "value": 0.0
        },
        {
          "paramId": 3,
          "value": 1.0
        },
        {
          "paramId": 4,
          "value": 1.0
        },
        {
          "paramId": 5,
          "value": 1.0
        },
        {
          "paramId": 6,
          "value": 1.0
        },
        {
          "paramId": 7,
          "value": 1.0
        }
      ]
    },
    {
      "plugin": "Fundamental",
      "version": "0.6.0",
      "model": "8vert",
      "pos": [
        0,
        2
      ],
      "params": [
        {
          "paramId": 0,
          "value": 1.0
        },
        {
          "paramId": 1,
          "value": 1.0
        },
        {
          "paramId": 2,
          "value": 0.0
        },
        {
          "paramId": 3,
          "value": 0.0
        },
        {
          "paramId": 4,
          "value": 1.0
        },
        {
          "paramId": 5,
          "value": 1.0
        },
        {
          "paramId": 6,
          "value": 1.0
        },
        {
          "paramId": 7,
          "value": 0.0
        }
      ]
    },
    {
      "plugin": "Fundamental",
      "version": "0.6.0",
      "model": "8vert",
      "pos": [
        0,
        3
      ],
      "params": [
        {
          "paramId": 0,
          "value": 1.0
        },
        {
          "paramId": 1,
          "value": 1.0
        },
        {
          "paramId": 2,
          "value": 1.0
        },
        {
          "paramId": 3,
          "value": 1.0
        },
        {
          "paramId": 4,
          "value": 0.0
        },
        {
          "paramId": 5,
          "value": 1.0
        },
        {
          "paramId": 6,
          "value": 1.0
        },
        {
          "paramId": 7,
          "value": 1.0
        }
      ]
    },
    {
      "plugin": "Befaco",
      "version": "0.6.0",
      "model": "ABC",
      "pos": [
        65,
        3
      ],
      "params": [
        {
          "paramId": 0,
          "value": 1.0
        },
        {
          "paramId": 1,
          "value": 1.0
        },
        {
          "paramId": 2,
          "value": 0.0
        },
        {
          "paramId": 3,
          "value": 0.0
        }
      ]
    },
    {
      "plugin": "TheXOR",
      "version": "0.6.2",
      "model": "M581",
      "pos": [
        36,
        3
      ],
      "params": [
        {
          "paramId": 24,
          "value": 1.0
        },
        {
          "paramId": 0,
          "value": 3.0
        },
        {
          "paramId": 16,
          "value": 0.683000207
        },
        {
          "paramId": 8,
          "value": 3.0
        },
        {
          "paramId": 25,
          "value": 1.0
        },
        {
          "paramId": 1,
          "value": 3.0
        },
        {
          "paramId": 17,
          "value": 0.599000096
        },
        {
          "paramId": 9,
          "value": 3.0
        },
        {
          "paramId": 26,
          "value": 1.0
        },
        {
          "paramId": 2,
          "value": 3.0
        },
        {
          "paramId": 18,
          "value": 0.564499915
        },
        {
          "paramId": 10,
          "value": 3.0
        },
        {
          "paramId": 27,
          "value": 1.0
        },
        {
          "paramId": 3,
          "value": 3.0
        },
        {
          "paramId": 19,
          "value": 0.468500167
        },
        {
          "paramId": 11,
          "value": 3.0
        },
        {
          "paramId": 28,
          "value": 1.0
        },
        {
          "paramId": 4,
          "value": 3.0
        },
        {
          "paramId": 20,
          "value": 0.524000168
        },
        {
          "paramId": 12,
          "value": 3.0
        },
        {
          "paramId": 29,
          "value": 1.0
        },
        {
          "paramId": 5,
          "value": 3.0
        },
        {
          "paramId": 21,
          "value": 0.719000041
        },
        {
          "paramId": 13,
          "value": 3.0
        },
        {
          "paramId": 30,
          "value": 1.0
        },
        {
          "paramId": 6,
          "value": 3.0
        },
        {
          "paramId": 22,
          "value": 0.519500017
        },
        {
          "paramId": 14,
          "value": 3.0
        },
        {
          "paramId": 31,
          "value": 1.0
        },
        {
          "paramId": 7,
          "value": 3.0
        },
        {
          "paramId": 23,
          "value": 0.340999991
        },
        {
          "paramId": 15,
          "value": 3.0
        },
        {
          "paramId": 32,
          "value": 0.25
        },
        {
          "paramId": 33,
          "value": 0.248629972
        },
        {
          "paramId": 37,
          "value": 0.0
        },
        {
          "paramId": 36,
          "value": 0.0
        },
        {
          "paramId": 34,
          "value": 8.0
        },
        {
          "paramId": 35,
          "value": 0.0
        }
      ],
      "data": {}
    },
    {
      "plugin": "AmalgamatedHarmonics",
      "version": "0.6.1",
      "model": "ScaleQuantizer2",
      "pos": [
        51,
        4
      ],
      "params": [
        {
          "paramId": 0,
          "value": 0.0
        },
        {
          "paramId": 1,
          "value": 0.0
        },
        {
          "paramId": 10,
          "value": 0.0
        },
        {
          "paramId": 2,
          "value": -1.0
        },
        {
          "paramId": 3,
          "value": 0.0
        },
        {
          "paramId": 4,
          "value": 0.0
        },
        {
          "paramId": 5,
          "value": 0.0
        },
        {
          "paramId": 6,
          "value": 0.0
        },
        {
          "paramId": 7,
          "value": 0.0
        },
        {
          "paramId": 8,
          "value": 0.0
        },
        {
          "paramId": 9,
          "value": 0.0
        }
      ]
    }
  ],
  "wires": [
    {
      "color": {
        "r": 0.0352941193,
        "g": 0.525490224,
        "b": 0.678431392,
        "a": 1.0
      },
      "outputModuleId": 2,
      "outputId": 0,
      "inputModuleId": 1,
      "inputId": 1
    },
    {
      "color": {
        "r": 0.788235366,
        "g": 0.717647076,
        "b": 0.054901965,
        "a": 1.0
      },
      "outputModuleId": 2,
      "outputId": 1,
      "inputModuleId": 1,
      "inputId": 3
    },
    {
      "color": {
        "r": 0.0470588282,
        "g": 0.556862772,
        "b": 0.0823529437,
        "a": 1.0
      },
      "outputModuleId": 1,
      "outputId": 1,
      "inputModuleId": 8,
      "inputId": 1
    },
    {
      "color": {
        "r": 0.788235366,
        "g": 0.0941176564,
        "b": 0.278431386,
        "a": 1.0
      },
      "outputModuleId": 3,
      "outputId": 0,
      "inputModuleId": 2,
      "inputId": 9
    },
    {
      "color": {
        "r": 0.788235366,
        "g": 0.0941176564,
        "b": 0.278431386,
        "a": 1.0
      },
      "outputModuleId": 1,
      "outputId": 0,
      "inputModuleId": 7,
      "inputId": 1
    },
    {
      "color": {
        "r": 0.0352941193,
        "g": 0.525490224,
        "b": 0.678431392,
        "a": 1.0
      },
      "outputModuleId": 4,
      "outputId": 0,
      "inputModuleId": 3,
      "inputId": 0
    },
    {
      "color": {
        "r": 0.788235366,
        "g": 0.717647076,
        "b": 0.054901965,
        "a": 1.0
      },
      "outputModuleId": 4,
      "outputId": 0,
      "inputModuleId": 19,
      "inputId": 6
    },
    {
      "color": {
        "r": 0.788235366,
        "g": 0.0941176564,
        "b": 0.278431386,
        "a": 1.0
      },
      "outputModuleId": 4,
      "outputId": 4,
      "inputModuleId": 3,
      "inputId": 1
    },
    {
      "color": {
        "r": 0.0470588282,
        "g": 0.556862772,
        "b": 0.0823529437,
        "a": 1.0
      },
      "outputModuleId": 4,
      "outputId": 4,
      "inputModuleId": 19,
      "inputId": 5
    },
    {
      "color": {
        "r": 0.0470588282,
        "g": 0.556862772,
        "b": 0.0823529437,
        "a": 1.0
      },
      "outputModuleId": 7,
      "outputId": 3,
      "inputModuleId": 0,
      "inputId": 0
    },
    {
      "color": {
        "r": 0.788235366,
        "g": 0.717647076,
        "b": 0.054901965,
        "a": 1.0
      },
      "outputModuleId": 8,
      "outputId": 3,
      "inputModuleId": 0,
      "inputId": 1
    },
    {
      "color": {
        "r": 0.788235366,
        "g": 0.717647076,
        "b": 0.054901965,
        "a": 1.0
      },
      "outputModuleId": 4,
      "outputId": 3,
      "inputModuleId": 2,
      "inputId": 10
    },
    {
      "color": {
        "r": 0.788235366,
        "g": 0.717647076,
        "b": 0.054901965,
        "a": 1.0
      },
      "outputModuleId": 19,
      "outputId": 0,
      "inputModuleId": 2,
      "inputId": 3
    },
    {
      "color": {
        "r": 0.788235366,
        "g": 0.717647076,
        "b": 0.054901965,
        "a": 1.0
      },
      "outputModuleId": 4,
      "outputId": 0,
      "inputModuleId": 2,
      "inputId": 2
    },
    {
      "color": {
        "r": 0.788235366,
        "g": 0.0941176564,
        "b": 0.278431386,
        "a": 1.0
      },
      "outputModuleId": 10,
      "outputId": 3,
      "inputModuleId": 9,
      "inputId": 6
    },
    {
      "color": {
        "r": 0.788235366,
        "g": 0.0941176564,
        "b": 0.278431386,
        "a": 1.0
      },
      "outputModuleId": 4,
      "outputId": 1,
      "inputModuleId": 9,
      "inputId": 1
    },
    {
      "color": {
        "r": 0.0470588282,
        "g": 0.556862772,
        "b": 0.0823529437,
        "a": 1.0
      },
      "outputModuleId": 11,
      "outputId": 0,
      "inputModuleId": 10,
      "inputId": 7
    },
    {
      "color": {
        "r": 0.0352941193,
        "g": 0.525490224,
        "b": 0.678431392,
        "a": 1.0
      },
      "outputModuleId": 6,
      "outputId": 0,
      "inputModuleId": 22,
      "inputId": 1
    },
    {
      "color": {
        "r": 0.0470588282,
        "g": 0.556862772,
        "b": 0.0823529437,
        "a": 1.0
      },
      "outputModuleId": 4,
      "outputId": 3,
      "inputModuleId": 20,
      "inputId": 4
    },
    {
      "color": {
        "r": 0.788235366,
        "g": 0.717647076,
        "b": 0.054901965,
        "a": 1.0
      },
      "outputModuleId": 4,
      "outputId": 0,
      "inputModuleId": 20,
      "inputId": 6
    },
    {
      "color": {
        "r": 0.788235366,
        "g": 0.0941176564,
        "b": 0.278431386,
        "a": 1.0
      },
      "outputModuleId": 4,
      "outputId": 4,
      "inputModuleId": 20,
      "inputId": 5
    },
    {
      "color": {
        "r": 0.0470588282,
        "g": 0.556862772,
        "b": 0.0823529437,
        "a": 1.0
      },
      "outputModuleId": 12,
      "outputId": 0,
      "inputModuleId": 9,
      "inputId": 9
    },
    {
      "color": {
        "r": 0.788235366,
        "g": 0.0941176564,
        "b": 0.278431386,
        "a": 1.0
      },
      "outputModuleId": 13,
      "outputId": 1,
      "inputModuleId": 15,
      "inputId": 1
    },
    {
      "color": {
        "r": 0.0470588282,
        "g": 0.556862772,
        "b": 0.0823529437,
        "a": 1.0
      },
      "outputModuleId": 13,
      "outputId": 1,
      "inputModuleId": 15,
      "inputId": 3
    },
    {
      "color": {
        "r": 0.788235366,
        "g": 0.717647076,
        "b": 0.054901965,
        "a": 1.0
      },
      "outputModuleId": 14,
      "outputId": 0,
      "inputModuleId": 15,
      "inputId": 0
    },
    {
      "color": {
        "r": 0.788235366,
        "g": 0.0941176564,
        "b": 0.278431386,
        "a": 1.0
      },
      "outputModuleId": 14,
      "outputId": 0,
      "inputModuleId": 15,
      "inputId": 2
    },
    {
      "color": {
        "r": 0.0470588282,
        "g": 0.556862772,
        "b": 0.0823529437,
        "a": 1.0
      },
      "outputModuleId": 19,
      "outputId": 3,
      "inputModuleId": 7,
      "inputId": 5
    },
    {
      "color": {
        "r": 0.0352941193,
        "g": 0.525490224,
        "b": 0.678431392,
        "a": 1.0
      },
      "outputModuleId": 19,
      "outputId": 4,
      "inputModuleId": 8,
      "inputId": 5
    },
    {
      "color": {
        "r": 0.788235366,
        "g": 0.717647076,
        "b": 0.054901965,
        "a": 1.0
      },
      "outputModuleId": 4,
      "outputId": 3,
      "inputModuleId": 21,
      "inputId": 6
    },
    {
      "color": {
        "r": 0.788235366,
        "g": 0.0941176564,
        "b": 0.278431386,
        "a": 1.0
      },
      "outputModuleId": 20,
      "outputId": 1,
      "inputModuleId": 16,
      "inputId": 1
    },
    {
      "color": {
        "r": 0.0470588282,
        "g": 0.556862772,
        "b": 0.0823529437,
        "a": 1.0
      },
      "outputModuleId": 20,
      "outputId": 0,
      "inputModuleId": 16,
      "inputId": 0
    },
    {
      "color": {
        "r": 0.0352941193,
        "g": 0.525490224,
        "b": 0.678431392,
        "a": 1.0
      },
      "outputModuleId": 16,
      "outputId": 0,
      "inputModuleId": 8,
      "inputId": 3
    },
    {
      "color": {
        "r": 0.788235366,
        "g": 0.717647076,
        "b": 0.054901965,
        "a": 1.0
      },
      "outputModuleId": 16,
      "outputId": 1,
      "inputModuleId": 7,
      "inputId": 3
    },
    {
      "color": {
        "r": 0.788235366,
        "g": 0.0941176564,
        "b": 0.278431386,
        "a": 1.0
      },
      "outputModuleId": 4,
      "outputId": 2,
      "inputModuleId": 21,
      "inputId": 7
    },
    {
      "color": {
        "r": 0.0470588282,
        "g": 0.556862772,
        "b": 0.0823529437,
        "a": 1.0
      },
      "outputModuleId": 19,
      "outputId": 7,
      "inputModuleId": 7,
      "inputId": 7
    },
    {
      "color": {
        "r": 0.788235366,
        "g": 0.717647076,
        "b": 0.054901965,
        "a": 1.0
      },
      "outputModuleId": 19,
      "outputId": 7,
      "inputModuleId": 8,
      "inputId": 7
    },
    {
      "color": {
        "r": 0.788235366,
        "g": 0.717647076,
        "b": 0.054901965,
        "a": 1.0
      },
      "outputModuleId": 18,
      "outputId": 1,
      "inputModuleId": 17,
      "inputId": 7
    },
    {
      "color": {
        "r": 0.788235366,
        "g": 0.717647076,
        "b": 0.054901965,
        "a": 1.0
      },
      "outputModuleId": 21,
      "outputId": 7,
      "inputModuleId": 17,
      "inputId": 5
    },
    {
      "color": {
        "r": 0.788235366,
        "g": 0.0941176564,
        "b": 0.278431386,
        "a": 1.0
      },
      "outputModuleId": 21,
      "outputId": 7,
      "inputModuleId": 18,
      "inputId": 8
    },
    {
      "color": {
        "r": 0.0352941193,
        "g": 0.525490224,
        "b": 0.678431392,
        "a": 1.0
      },
      "outputModuleId": 21,
      "outputId": 5,
      "inputModuleId": 19,
      "inputId": 7
    },
    {
      "color": {
        "r": 0.788235366,
        "g": 0.717647076,
        "b": 0.054901965,
        "a": 1.0
      },
      "outputModuleId": 17,
      "outputId": 0,
      "inputModuleId": 21,
      "inputId": 5
    },
    {
      "color": {
        "r": 0.788235366,
        "g": 0.0941176564,
        "b": 0.278431386,
        "a": 1.0
      },
      "outputModuleId": 21,
      "outputId": 6,
      "inputModuleId": 14,
      "inputId": 4
    },
    {
      "color": {
        "r": 0.0470588282,
        "g": 0.556862772,
        "b": 0.0823529437,
        "a": 1.0
      },
      "outputModuleId": 20,
      "outputId": 6,
      "inputModuleId": 12,
      "inputId": 0
    },
    {
      "color": {
        "r": 0.0352941193,
        "g": 0.525490224,
        "b": 0.678431392,
        "a": 1.0
      },
      "outputModuleId": 20,
      "outputId": 5,
      "inputModuleId": 12,
      "inputId": 1
    },
    {
      "color": {
        "r": 0.788235366,
        "g": 0.717647076,
        "b": 0.054901965,
        "a": 1.0
      },
      "outputModuleId": 9,
      "outputId": 0,
      "inputModuleId": 20,
      "inputId": 0
    },
    {
      "color": {
        "r": 0.788235366,
        "g": 0.0941176564,
        "b": 0.278431386,
        "a": 1.0
      },
      "outputModuleId": 9,
      "outputId": 1,
      "inputModuleId": 20,
      "inputId": 1
    },
    {
      "color": {
        "r": 0.0470588282,
        "g": 0.556862772,
        "b": 0.0823529437,
        "a": 1.0
      },
      "outputModuleId": 20,
      "outputId": 4,
      "inputModuleId": 11,
      "inputId": 2
    },
    {
      "color": {
        "r": 0.0352941193,
        "g": 0.525490224,
        "b": 0.678431392,
        "a": 1.0
      },
      "outputModuleId": 19,
      "outputId": 6,
      "inputModuleId": 5,
      "inputId": 0
    },
    {
      "color": {
        "r": 0.788235366,
        "g": 0.717647076,
        "b": 0.054901965,
        "a": 1.0
      },
      "outputModuleId": 19,
      "outputId": 5,
      "inputModuleId": 5,
      "inputId": 1
    },
    {
      "color": {
        "r": 0.788235366,
        "g": 0.0941176564,
        "b": 0.278431386,
        "a": 1.0
      },
      "outputModuleId": 5,
      "outputId": 0,
      "inputModuleId": 19,
      "inputId": 0
    },
    {
      "color": {
        "r": 0.0470588282,
        "g": 0.556862772,
        "b": 0.0823529437,
        "a": 1.0
      },
      "outputModuleId": 15,
      "outputId": 0,
      "inputModuleId": 21,
      "inputId": 2
    },
    {
      "color": {
        "r": 0.0352941193,
        "g": 0.525490224,
        "b": 0.678431392,
        "a": 1.0
      },
      "outputModuleId": 15,
      "outputId": 1,
      "inputModuleId": 21,
      "inputId": 3
    },
    {
      "color": {
        "r": 0.788235366,
        "g": 0.717647076,
        "b": 0.054901965,
        "a": 1.0
      },
      "outputModuleId": 21,
      "outputId": 2,
      "inputModuleId": 19,
      "inputId": 3
    },
    {
      "color": {
        "r": 0.788235366,
        "g": 0.0941176564,
        "b": 0.278431386,
        "a": 1.0
      },
      "outputModuleId": 21,
      "outputId": 3,
      "inputModuleId": 19,
      "inputId": 4
    },
    {
      "color": {
        "r": 0.0352941193,
        "g": 0.525490224,
        "b": 0.678431392,
        "a": 1.0
      },
      "outputModuleId": 21,
      "outputId": 0,
      "inputModuleId": 23,
      "inputId": 1
    },
    {
      "color": {
        "r": 0.788235366,
        "g": 0.717647076,
        "b": 0.054901965,
        "a": 1.0
      },
      "outputModuleId": 20,
      "outputId": 6,
      "inputModuleId": 21,
      "inputId": 1
    },
    {
      "color": {
        "r": 0.0470588282,
        "g": 0.556862772,
        "b": 0.0823529437,
        "a": 1.0
      },
      "outputModuleId": 23,
      "outputId": 0,
      "inputModuleId": 22,
      "inputId": 2
    },
    {
      "color": {
        "r": 0.0352941193,
        "g": 0.525490224,
        "b": 0.678431392,
        "a": 1.0
      },
      "outputModuleId": 22,
      "outputId": 0,
      "inputModuleId": 24,
      "inputId": 0
    },
    {
      "color": {
        "r": 0.788235366,
        "g": 0.717647076,
        "b": 0.054901965,
        "a": 1.0
      },
      "outputModuleId": 24,
      "outputId": 0,
      "inputModuleId": 10,
      "inputId": 6
    },
    {
      "color": {
        "r": 0.788235366,
        "g": 0.0941176564,
        "b": 0.278431386,
        "a": 1.0
      },
      "outputModuleId": 4,
      "outputId": 4,
      "inputModuleId": 21,
      "inputId": 0
    },
    {
      "color": {
        "r": 0.0470588282,
        "g": 0.556862772,
        "b": 0.0823529437,
        "a": 1.0
      },
      "outputModuleId": 21,
      "outputId": 1,
      "inputModuleId": 23,
      "inputId": 0
    }
  ]
}