{
  "version": "0.6.0",
  "modules": [
    {
      "plugin": "Core",
      "version": "0.6.0",
      "model": "MIDIToCVInterface",
      "pos": [
        0,
        0
      ],
      "params": [],
      "data": {
        "divisions": [
          24,
          6
        ],
        "midi": {
          "driver": 4,
          "deviceName": "nanoKEY2 1",
          "channel": -1
        }
      }
    },
    {
      "plugin": "AudibleInstruments",
      "version": "0.6.0",
      "model": "Rings",
      "pos": [
        37,
        0
      ],
      "params": [
        {
          "paramId": 0,
          "value": 0.0
        },
        {
          "paramId": 1,
          "value": 0.0
        },
        {
          "paramId": 2,
          "value": 30.0
        },
        {
          "paramId": 3,
          "value": 0.5
        },
        {
          "paramId": 4,
          "value": 0.315499872
        },
        {
          "paramId": 5,
          "value": 0.571999967
        },
        {
          "paramId": 6,
          "value": 0.5
        },
        {
          "paramId": 7,
          "value": 0.0
        },
        {
          "paramId": 8,
          "value": 0.0
        },
        {
          "paramId": 9,
          "value": 0.0
        },
        {
          "paramId": 10,
          "value": 0.0
        },
        {
          "paramId": 11,
          "value": 0.0
        }
      ],
      "data": {
        "polyphony": 0,
        "model": 0,
        "easterEgg": false
      }
    },
    {
      "plugin": "Core",
      "version": "0.6.0",
      "model": "AudioInterface",
      "pos": [
        77,
        1
      ],
      "params": [],
      "data": {
        "audio": {
          "driver": 7,
          "deviceName": "FL Studio ASIO",
          "offset": 0,
          "maxChannels": 8,
          "sampleRate": 44100,
          "blockSize": 256
        }
      }
    },
    {
      "plugin": "TheXOR",
      "version": "0.6.2",
      "model": "M581",
      "pos": [
        8,
        0
      ],
      "params": [
        {
          "paramId": 24,
          "value": 1.0
        },
        {
          "paramId": 0,
          "value": 2.0
        },
        {
          "paramId": 16,
          "value": 0.224999815
        },
        {
          "paramId": 8,
          "value": 2.0
        },
        {
          "paramId": 25,
          "value": 2.0
        },
        {
          "paramId": 1,
          "value": 1.0
        },
        {
          "paramId": 17,
          "value": 0.36499992
        },
        {
          "paramId": 9,
          "value": 4.0
        },
        {
          "paramId": 26,
          "value": 1.0
        },
        {
          "paramId": 2,
          "value": 2.0
        },
        {
          "paramId": 18,
          "value": 0.26000002
        },
        {
          "paramId": 10,
          "value": 2.0
        },
        {
          "paramId": 27,
          "value": 2.0
        },
        {
          "paramId": 3,
          "value": 1.0
        },
        {
          "paramId": 19,
          "value": 0.396499932
        },
        {
          "paramId": 11,
          "value": 4.0
        },
        {
          "paramId": 28,
          "value": 1.0
        },
        {
          "paramId": 4,
          "value": 2.0
        },
        {
          "paramId": 20,
          "value": 0.333499938
        },
        {
          "paramId": 12,
          "value": 2.0
        },
        {
          "paramId": 29,
          "value": 2.0
        },
        {
          "paramId": 5,
          "value": 1.0
        },
        {
          "paramId": 21,
          "value": 0.17899999
        },
        {
          "paramId": 13,
          "value": 4.0
        },
        {
          "paramId": 30,
          "value": 1.0
        },
        {
          "paramId": 6,
          "value": 2.0
        },
        {
          "paramId": 22,
          "value": 0.254000068
        },
        {
          "paramId": 14,
          "value": 2.0
        },
        {
          "paramId": 31,
          "value": 2.0
        },
        {
          "paramId": 7,
          "value": 1.0
        },
        {
          "paramId": 23,
          "value": 0.607999802
        },
        {
          "paramId": 15,
          "value": 4.0
        },
        {
          "paramId": 32,
          "value": 0.00499999989
        },
        {
          "paramId": 33,
          "value": 0.218704909
        },
        {
          "paramId": 37,
          "value": 0.0
        },
        {
          "paramId": 36,
          "value": 0.0
        },
        {
          "paramId": 34,
          "value": 8.0
        },
        {
          "paramId": 35,
          "value": 0.0
        }
      ],
      "data": {}
    },
    {
      "plugin": "AmalgamatedHarmonics",
      "version": "0.6.1",
      "model": "ScaleQuantizer2",
      "pos": [
        51,
        0
      ],
      "params": [
        {
          "paramId": 0,
          "value": 0.0
        },
        {
          "paramId": 1,
          "value": 2.0
        },
        {
          "paramId": 10,
          "value": 0.0
        },
        {
          "paramId": 2,
          "value": -2.0
        },
        {
          "paramId": 3,
          "value": -0.0
        },
        {
          "paramId": 4,
          "value": 0.0
        },
        {
          "paramId": 5,
          "value": 0.0
        },
        {
          "paramId": 6,
          "value": 0.0
        },
        {
          "paramId": 7,
          "value": 0.0
        },
        {
          "paramId": 8,
          "value": 0.0
        },
        {
          "paramId": 9,
          "value": 0.0
        }
      ]
    },
    {
      "plugin": "cf",
      "version": "0.6.0",
      "model": "METRO",
      "pos": [
        2,
        1
      ],
      "params": [
        {
          "paramId": 0,
          "value": 180.601303
        },
        {
          "paramId": 3,
          "value": 0.0
        },
        {
          "paramId": 1,
          "value": 0.0
        },
        {
          "paramId": 2,
          "value": 0.0
        }
      ],
      "data": {
        "onstate": 1
      }
    },
    {
      "plugin": "AudibleInstruments",
      "version": "0.6.0",
      "model": "Braids",
      "pos": [
        37,
        1
      ],
      "params": [
        {
          "paramId": 6,
          "value": 0.306000084
        },
        {
          "paramId": 0,
          "value": 0.0
        },
        {
          "paramId": 1,
          "value": 0.0
        },
        {
          "paramId": 2,
          "value": 1.0
        },
        {
          "paramId": 3,
          "value": 0.70849967
        },
        {
          "paramId": 4,
          "value": 0.0
        },
        {
          "paramId": 5,
          "value": 0.254000038
        }
      ],
      "data": {
        "settings": [
          14,
          0,
          0,
          0,
          0,
          0,
          0,
          0,
          0,
          0,
          0,
          0,
          0,
          0,
          0,
          0,
          0,
          0,
          0,
          0
        ],
        "lowCpu": false
      }
    },
    {
      "plugin": "TheXOR",
      "version": "0.6.2",
      "model": "M581",
      "pos": [
        8,
        1
      ],
      "params": [
        {
          "paramId": 24,
          "value": 1.0
        },
        {
          "paramId": 0,
          "value": 2.0
        },
        {
          "paramId": 16,
          "value": 0.126499936
        },
        {
          "paramId": 8,
          "value": 1.0
        },
        {
          "paramId": 25,
          "value": 1.0
        },
        {
          "paramId": 1,
          "value": 2.0
        },
        {
          "paramId": 17,
          "value": 0.377000004
        },
        {
          "paramId": 9,
          "value": 1.0
        },
        {
          "paramId": 26,
          "value": 1.0
        },
        {
          "paramId": 2,
          "value": 2.0
        },
        {
          "paramId": 18,
          "value": 0.195499942
        },
        {
          "paramId": 10,
          "value": 1.0
        },
        {
          "paramId": 27,
          "value": 1.0
        },
        {
          "paramId": 3,
          "value": 2.0
        },
        {
          "paramId": 19,
          "value": 0.384499967
        },
        {
          "paramId": 11,
          "value": 1.0
        },
        {
          "paramId": 28,
          "value": 2.0
        },
        {
          "paramId": 4,
          "value": 1.0
        },
        {
          "paramId": 20,
          "value": 0.282500029
        },
        {
          "paramId": 12,
          "value": 1.0
        },
        {
          "paramId": 29,
          "value": 2.0
        },
        {
          "paramId": 5,
          "value": 1.0
        },
        {
          "paramId": 21,
          "value": 0.138499916
        },
        {
          "paramId": 13,
          "value": 1.0
        },
        {
          "paramId": 30,
          "value": 1.0
        },
        {
          "paramId": 6,
          "value": 2.0
        },
        {
          "paramId": 22,
          "value": 0.360500008
        },
        {
          "paramId": 14,
          "value": 1.0
        },
        {
          "paramId": 31,
          "value": 1.0
        },
        {
          "paramId": 7,
          "value": 2.0
        },
        {
          "paramId": 23,
          "value": 0.273499966
        },
        {
          "paramId": 15,
          "value": 1.0
        },
        {
          "paramId": 32,
          "value": 0.29776001
        },
        {
          "paramId": 33,
          "value": 0.221697509
        },
        {
          "paramId": 37,
          "value": 1.0
        },
        {
          "paramId": 36,
          "value": 0.0
        },
        {
          "paramId": 34,
          "value": 8.0
        },
        {
          "paramId": 35,
          "value": 0.0
        }
      ],
      "data": {}
    },
    {
      "plugin": "Fundamental",
      "version": "0.6.0",
      "model": "ADSR",
      "pos": [
        53,
        1
      ],
      "params": [
        {
          "paramId": 0,
          "value": 0.330499977
        },
        {
          "paramId": 1,
          "value": 0.5
        },
        {
          "paramId": 2,
          "value": 0.5
        },
        {
          "paramId": 3,
          "value": 0.5
        }
      ]
    },
    {
      "plugin": "Fundamental",
      "version": "0.6.0",
      "model": "VCA",
      "pos": [
        61,
        1
      ],
      "params": [
        {
          "paramId": 0,
          "value": 0.5
        },
        {
          "paramId": 1,
          "value": 0.5
        }
      ]
    },
    {
      "plugin": "Fundamental",
      "version": "0.6.0",
      "model": "VCMixer",
      "pos": [
        67,
        1
      ],
      "params": [
        {
          "paramId": 0,
          "value": 1.0
        },
        {
          "paramId": 1,
          "value": 1.0
        },
        {
          "paramId": 2,
          "value": 1.0
        },
        {
          "paramId": 3,
          "value": 1.0
        },
        {
          "paramId": 4,
          "value": 1.0
        }
      ]
    },
    {
      "plugin": "Befaco",
      "version": "0.6.0",
      "model": "SlewLimiter",
      "pos": [
        71,
        0
      ],
      "params": [
        {
          "paramId": 0,
          "value": 0.0
        },
        {
          "paramId": 1,
          "value": 0.0
        },
        {
          "paramId": 2,
          "value": 0.432999045
        }
      ]
    }
  ],
  "wires": [
    {
      "color": {
        "r": 0.788235366,
        "g": 0.0941176564,
        "b": 0.278431386,
        "a": 1.0
      },
      "outputModuleId": 3,
      "outputId": 0,
      "inputModuleId": 4,
      "inputId": 0
    },
    {
      "color": {
        "r": 0.0470588282,
        "g": 0.556862772,
        "b": 0.0823529437,
        "a": 1.0
      },
      "outputModuleId": 3,
      "outputId": 1,
      "inputModuleId": 1,
      "inputId": 5
    },
    {
      "color": {
        "r": 0.0352941193,
        "g": 0.525490224,
        "b": 0.678431392,
        "a": 1.0
      },
      "outputModuleId": 5,
      "outputId": 2,
      "inputModuleId": 11,
      "inputId": 2
    },
    {
      "color": {
        "r": 0.788235366,
        "g": 0.717647076,
        "b": 0.054901965,
        "a": 1.0
      },
      "outputModuleId": 4,
      "outputId": 0,
      "inputModuleId": 1,
      "inputId": 6
    },
    {
      "color": {
        "r": 0.788235366,
        "g": 0.0941176564,
        "b": 0.278431386,
        "a": 1.0
      },
      "outputModuleId": 7,
      "outputId": 0,
      "inputModuleId": 4,
      "inputId": 1
    },
    {
      "color": {
        "r": 0.0352941193,
        "g": 0.525490224,
        "b": 0.678431392,
        "a": 1.0
      },
      "outputModuleId": 7,
      "outputId": 1,
      "inputModuleId": 8,
      "inputId": 4
    },
    {
      "color": {
        "r": 0.788235366,
        "g": 0.717647076,
        "b": 0.054901965,
        "a": 1.0
      },
      "outputModuleId": 6,
      "outputId": 0,
      "inputModuleId": 9,
      "inputId": 2
    },
    {
      "color": {
        "r": 0.788235366,
        "g": 0.0941176564,
        "b": 0.278431386,
        "a": 1.0
      },
      "outputModuleId": 8,
      "outputId": 0,
      "inputModuleId": 9,
      "inputId": 0
    },
    {
      "color": {
        "r": 0.0470588282,
        "g": 0.556862772,
        "b": 0.0823529437,
        "a": 1.0
      },
      "outputModuleId": 9,
      "outputId": 0,
      "inputModuleId": 10,
      "inputId": 2
    },
    {
      "color": {
        "r": 0.0352941193,
        "g": 0.525490224,
        "b": 0.678431392,
        "a": 1.0
      },
      "outputModuleId": 10,
      "outputId": 0,
      "inputModuleId": 2,
      "inputId": 0
    },
    {
      "color": {
        "r": 0.788235366,
        "g": 0.717647076,
        "b": 0.054901965,
        "a": 1.0
      },
      "outputModuleId": 10,
      "outputId": 0,
      "inputModuleId": 2,
      "inputId": 1
    },
    {
      "color": {
        "r": 0.788235366,
        "g": 0.0941176564,
        "b": 0.278431386,
        "a": 1.0
      },
      "outputModuleId": 4,
      "outputId": 1,
      "inputModuleId": 6,
      "inputId": 1
    },
    {
      "color": {
        "r": 0.0470588282,
        "g": 0.556862772,
        "b": 0.0823529437,
        "a": 1.0
      },
      "outputModuleId": 0,
      "outputId": 0,
      "inputModuleId": 6,
      "inputId": 2
    },
    {
      "color": {
        "r": 0.788235366,
        "g": 0.0941176564,
        "b": 0.278431386,
        "a": 1.0
      },
      "outputModuleId": 0,
      "outputId": 0,
      "inputModuleId": 1,
      "inputId": 1
    },
    {
      "color": {
        "r": 0.788235366,
        "g": 0.717647076,
        "b": 0.054901965,
        "a": 1.0
      },
      "outputModuleId": 1,
      "outputId": 1,
      "inputModuleId": 10,
      "inputId": 1
    },
    {
      "color": {
        "r": 0.788235366,
        "g": 0.0941176564,
        "b": 0.278431386,
        "a": 1.0
      },
      "outputModuleId": 11,
      "outputId": 0,
      "inputModuleId": 3,
      "inputId": 0
    },
    {
      "color": {
        "r": 0.0352941193,
        "g": 0.525490224,
        "b": 0.678431392,
        "a": 1.0
      },
      "outputModuleId": 11,
      "outputId": 0,
      "inputModuleId": 7,
      "inputId": 0
    },
    {
      "color": {
        "r": 0.0470588282,
        "g": 0.556862772,
        "b": 0.0823529437,
        "a": 1.0
      },
      "outputModuleId": 0,
      "outputId": 9,
      "inputModuleId": 3,
      "inputId": 1
    },
    {
      "color": {
        "r": 0.0352941193,
        "g": 0.525490224,
        "b": 0.678431392,
        "a": 1.0
      },
      "outputModuleId": 0,
      "outputId": 9,
      "inputModuleId": 7,
      "inputId": 1
    },
    {
      "color": {
        "r": 0.0352941193,
        "g": 0.525490224,
        "b": 0.678431392,
        "a": 1.0
      },
      "outputModuleId": 0,
      "outputId": 0,
      "inputModuleId": 4,
      "inputId": 10
    }
  ]
}