{
  "version": "0.6.0",
  "modules": [
    {
      "plugin": "Core",
      "version": "0.6.0",
      "model": "MIDIToCVInterface",
      "pos": [
        0,
        0
      ],
      "params": [],
      "data": {
        "divisions": [
          24,
          6
        ],
        "midi": {
          "driver": 4,
          "deviceName": "Oxygen 49 0",
          "channel": -1
        }
      }
    },
    {
      "plugin": "Core",
      "version": "0.6.0",
      "model": "AudioInterface",
      "pos": [
        61,
        0
      ],
      "params": [],
      "data": {
        "audio": {
          "driver": 7,
          "deviceName": "FL Studio ASIO",
          "offset": 0,
          "maxChannels": 8,
          "sampleRate": 44100,
          "blockSize": 256
        }
      }
    },
    {
      "plugin": "Fundamental",
      "version": "0.6.0",
      "model": "Scope",
      "pos": [
        34,
        0
      ],
      "params": [
        {
          "paramId": 0,
          "value": 0.0
        },
        {
          "paramId": 1,
          "value": 0.0
        },
        {
          "paramId": 2,
          "value": 0.0
        },
        {
          "paramId": 3,
          "value": 0.0
        },
        {
          "paramId": 4,
          "value": -16.0
        },
        {
          "paramId": 5,
          "value": 0.0
        },
        {
          "paramId": 6,
          "value": 0.0
        },
        {
          "paramId": 7,
          "value": 0.0
        }
      ],
      "data": {
        "lissajous": 0,
        "external": 1
      }
    },
    {
      "plugin": "AudibleInstruments",
      "version": "0.6.0",
      "model": "Kinks",
      "pos": [
        30,
        0
      ],
      "params": []
    },
    {
      "plugin": "Fundamental",
      "version": "0.6.0",
      "model": "VCO",
      "pos": [
        8,
        0
      ],
      "params": [
        {
          "paramId": 0,
          "value": 0.0
        },
        {
          "paramId": 1,
          "value": 1.0
        },
        {
          "paramId": 2,
          "value": 0.0
        },
        {
          "paramId": 3,
          "value": 0.0
        },
        {
          "paramId": 5,
          "value": 0.5
        },
        {
          "paramId": 4,
          "value": 0.0
        },
        {
          "paramId": 6,
          "value": 0.0
        }
      ]
    },
    {
      "plugin": "SubmarineFree",
      "version": "0.6.3",
      "model": "XF-101",
      "pos": [
        18,
        0
      ],
      "params": [
        {
          "paramId": 0,
          "value": 0.0
        },
        {
          "paramId": 1,
          "value": 1.0
        },
        {
          "paramId": 2,
          "value": 9.92500019
        }
      ]
    },
    {
      "plugin": "Fundamental",
      "version": "0.6.0",
      "model": "ADSR",
      "pos": [
        53,
        0
      ],
      "params": [
        {
          "paramId": 0,
          "value": 0.5
        },
        {
          "paramId": 1,
          "value": 0.5
        },
        {
          "paramId": 2,
          "value": 0.5
        },
        {
          "paramId": 3,
          "value": 0.5
        }
      ]
    },
    {
      "plugin": "Fundamental",
      "version": "0.6.0",
      "model": "VCA",
      "pos": [
        47,
        0
      ],
      "params": [
        {
          "paramId": 0,
          "value": 0.5
        },
        {
          "paramId": 1,
          "value": 0.5
        }
      ]
    }
  ],
  "wires": [
    {
      "color": {
        "r": 0.0352941193,
        "g": 0.525490224,
        "b": 0.678431392,
        "a": 1.0
      },
      "outputModuleId": 0,
      "outputId": 0,
      "inputModuleId": 4,
      "inputId": 0
    },
    {
      "color": {
        "r": 0.0352941193,
        "g": 0.525490224,
        "b": 0.678431392,
        "a": 1.0
      },
      "outputModuleId": 4,
      "outputId": 2,
      "inputModuleId": 3,
      "inputId": 0
    },
    {
      "color": {
        "r": 0.788235366,
        "g": 0.717647076,
        "b": 0.054901965,
        "a": 1.0
      },
      "outputModuleId": 4,
      "outputId": 3,
      "inputModuleId": 5,
      "inputId": 1
    },
    {
      "color": {
        "r": 0.788235366,
        "g": 0.0941176564,
        "b": 0.278431386,
        "a": 1.0
      },
      "outputModuleId": 5,
      "outputId": 0,
      "inputModuleId": 7,
      "inputId": 2
    },
    {
      "color": {
        "r": 0.0470588282,
        "g": 0.556862772,
        "b": 0.0823529437,
        "a": 1.0
      },
      "outputModuleId": 0,
      "outputId": 5,
      "inputModuleId": 5,
      "inputId": 2
    },
    {
      "color": {
        "r": 0.0352941193,
        "g": 0.525490224,
        "b": 0.678431392,
        "a": 1.0
      },
      "outputModuleId": 0,
      "outputId": 1,
      "inputModuleId": 6,
      "inputId": 4
    },
    {
      "color": {
        "r": 0.788235366,
        "g": 0.0941176564,
        "b": 0.278431386,
        "a": 1.0
      },
      "outputModuleId": 7,
      "outputId": 1,
      "inputModuleId": 1,
      "inputId": 0
    },
    {
      "color": {
        "r": 0.0470588282,
        "g": 0.556862772,
        "b": 0.0823529437,
        "a": 1.0
      },
      "outputModuleId": 7,
      "outputId": 1,
      "inputModuleId": 1,
      "inputId": 1
    },
    {
      "color": {
        "r": 0.0352941193,
        "g": 0.525490224,
        "b": 0.678431392,
        "a": 1.0
      },
      "outputModuleId": 6,
      "outputId": 0,
      "inputModuleId": 7,
      "inputId": 0
    },
    {
      "color": {
        "r": 0.788235366,
        "g": 0.717647076,
        "b": 0.054901965,
        "a": 1.0
      },
      "outputModuleId": 0,
      "outputId": 2,
      "inputModuleId": 7,
      "inputId": 4
    },
    {
      "color": {
        "r": 0.788235366,
        "g": 0.0941176564,
        "b": 0.278431386,
        "a": 1.0
      },
      "outputModuleId": 7,
      "outputId": 0,
      "inputModuleId": 7,
      "inputId": 5
    },
    {
      "color": {
        "r": 0.0470588282,
        "g": 0.556862772,
        "b": 0.0823529437,
        "a": 1.0
      },
      "outputModuleId": 4,
      "outputId": 3,
      "inputModuleId": 2,
      "inputId": 2
    },
    {
      "color": {
        "r": 0.0352941193,
        "g": 0.525490224,
        "b": 0.678431392,
        "a": 1.0
      },
      "outputModuleId": 3,
      "outputId": 0,
      "inputModuleId": 5,
      "inputId": 0
    },
    {
      "color": {
        "r": 0.788235366,
        "g": 0.717647076,
        "b": 0.054901965,
        "a": 1.0
      },
      "outputModuleId": 5,
      "outputId": 0,
      "inputModuleId": 2,
      "inputId": 1
    }
  ]
}